<?xml version="1.0" encoding="UTF-8" standalone="no"?>
<!-- Created with Inkscape (http://www.inkscape.org/) -->

<svg
   width="187.45821"
   height="210.35402"
   viewBox="0 0 187.45821 210.35402"
   id="svg2"
   version="1.1"
   inkscape:version="1.2.2 (b0a8486541, 2022-12-01)"
   sodipodi:docname="logo-gaspacho-mono (Copy).svg"
   inkscape:export-filename="gazpacho-white.png"
   inkscape:export-xdpi="240.05"
   inkscape:export-ydpi="240.05"
   xmlns:inkscape="http://www.inkscape.org/namespaces/inkscape"
   xmlns:sodipodi="http://sodipodi.sourceforge.net/DTD/sodipodi-0.dtd"
   xmlns:xlink="http://www.w3.org/1999/xlink"
   xmlns="http://www.w3.org/2000/svg"
   xmlns:svg="http://www.w3.org/2000/svg"
   xmlns:rdf="http://www.w3.org/1999/02/22-rdf-syntax-ns#"
   xmlns:cc="http://creativecommons.org/ns#"
   xmlns:dc="http://purl.org/dc/elements/1.1/">
  <defs
     id="defs4">
    <linearGradient
       inkscape:collect="always"
       id="linearGradient4249">
      <stop
         style="stop-color:#333333;stop-opacity:1;"
         offset="0"
         id="stop4251" />
      <stop
         style="stop-color:#888888;stop-opacity:1"
         offset="1"
         id="stop4253" />
    </linearGradient>
    <linearGradient
       inkscape:collect="always"
       xlink:href="#linearGradient4249"
       id="linearGradient4795"
       gradientUnits="userSpaceOnUse"
       gradientTransform="translate(-15,244.28571)"
       x1="139.4003"
       y1="226.62682"
       x2="139.4003"
       y2="196.32225" />
    <linearGradient
       inkscape:collect="always"
       xlink:href="#linearGradient4249"
       id="linearGradient4803"
       gradientUnits="userSpaceOnUse"
       gradientTransform="translate(-15,244.28571)"
       x1="139.4003"
       y1="226.62682"
       x2="139.4003"
       y2="196.32225" />
    <linearGradient
       inkscape:collect="always"
       xlink:href="#linearGradient4249"
       id="linearGradient4242"
       gradientUnits="userSpaceOnUse"
       gradientTransform="translate(-5.7899573,-17.948212)"
       x1="139.4003"
       y1="226.62682"
       x2="139.4003"
       y2="196.32225" />
  </defs>
  <sodipodi:namedview
     id="base"
     pagecolor="#ffffff"
     bordercolor="#666666"
     borderopacity="1.0"
     inkscape:pageopacity="0.0"
     inkscape:pageshadow="2"
     inkscape:zoom="1.979899"
     inkscape:cx="-133.34014"
     inkscape:cy="112.63201"
     inkscape:document-units="px"
     inkscape:current-layer="layer1"
     showgrid="false"
     inkscape:window-width="1280"
     inkscape:window-height="651"
     inkscape:window-x="0"
     inkscape:window-y="32"
     inkscape:window-maximized="1"
     showguides="true"
     inkscape:guide-bbox="true"
     inkscape:snap-bbox="true"
     inkscape:bbox-nodes="false"
     inkscape:snap-bbox-midpoints="true"
     inkscape:showpageshadow="false"
     borderlayer="true"
     units="px"
     fit-margin-top="10"
     fit-margin-left="10"
     fit-margin-right="10"
     fit-margin-bottom="10"
     inkscape:pagecheckerboard="0"
     inkscape:deskcolor="#d1d1d1">
    <sodipodi:guide
       position="526.43569,52.905668"
       orientation="0,1"
       id="guide5003"
       inkscape:locked="false" />
    <sodipodi:guide
       position="550.00712,21.477098"
       orientation="0,1"
       id="guide5005"
       inkscape:locked="false" />
  </sodipodi:namedview>
  <metadata
     id="metadata7">
    <rdf:RDF>
      <cc:Work
         rdf:about="">
        <dc:format>image/svg+xml</dc:format>
        <dc:type
           rdf:resource="http://purl.org/dc/dcmitype/StillImage" />
        <dc:title />
      </cc:Work>
    </rdf:RDF>
  </metadata>
  <g
     inkscape:label="Capa 1"
     inkscape:groupmode="layer"
     id="layer1"
     transform="translate(-38.564316,-17.056693)">
    <path
       inkscape:connector-curvature="0"
       id="path4175"
       style="font-style:normal;font-variant:normal;font-weight:normal;font-stretch:normal;font-size:medium;line-height:125%;font-family:Agreloy;-inkscape-font-specification:'Agreloy, Normal';text-align:start;letter-spacing:0px;word-spacing:0px;writing-mode:lr-tb;text-anchor:start;fill:#ffffff;fill-opacity:1;stroke:none;stroke-width:1px;stroke-linecap:butt;stroke-linejoin:miter;stroke-opacity:1"
       d="m 64.698433,119.25532 c 4.055699,4.28102 7.210132,8.33672 8.787348,13.74432 6.759499,25.23546 28.615209,41.00762 58.807639,41.00762 29.96711,0 51.82282,-15.77216 58.58232,-41.00762 1.57722,-5.4076 4.73165,-9.4633 9.01266,-13.74432 -3.37974,0 -5.18228,0.45063 -6.98481,1.12658 0,-1.3519 0.22532,-2.92911 0.22532,-4.50633 0,-34.698757 -24.3342,-58.131686 -60.83549,-58.131686 -36.501294,0 -60.835488,23.432929 -60.835488,58.131686 0,1.57722 0,3.15443 0,4.50633 -1.802533,-0.67595 -3.605066,-1.12658 -6.759499,-1.12658 z m 40.556987,-3.37975 c 0,-17.124061 10.8152,-28.840525 27.038,-28.840525 16.2228,0 27.03799,11.716464 27.03799,28.840525 0,17.34938 -10.81519,28.84053 -27.03799,28.84053 -16.2228,0 -27.038,-11.49115 -27.038,-28.84053 z" />
    <path
       style="font-style:normal;font-variant:normal;font-weight:normal;font-stretch:normal;font-size:108.63285065px;line-height:125%;font-family:Agreloy;-inkscape-font-specification:'Agreloy, Normal';text-align:start;letter-spacing:0px;word-spacing:0px;writing-mode:lr-tb;text-anchor:start;fill:#ffffff;fill-opacity:1;stroke:none;stroke-width:1px;stroke-linecap:butt;stroke-linejoin:miter;stroke-opacity:1"
       d="m 136.76222,27.056693 -23.42315,18.432 0,2.68772 2.56116,0 c 3.83966,0 7.03914,2.30425 7.03914,5.12 l 0,3.19855 c 0,4.4796 -1.02483,4.60686 -3.84057,4.60686 2.1758,1.79184 3.84057,5.76096 3.84057,9.98458 l 0,9.72684 c 0,3.58368 -1.66408,8.44817 -5.75972,10.24001 l 0.53617,0 c 7.46136,-3.78715 19.8276,-4.89544 28.26241,-0.60749 -2.58261,-2.62642 -3.84059,-6.53862 -3.84059,-10.78538 l 0,-8.57398 c 0,-4.22362 1.66248,-8.19274 3.83829,-9.98458 -2.81576,0 -3.83829,-0.12726 -3.83829,-4.60686 l 0,-18.55856 c 0,-4.4796 1.15205,-8.57592 4.73573,-10.87971 l -10.11115,0 z"
       id="text4156"
       inkscape:connector-curvature="0"
       inkscape:export-xdpi="240.55"
       inkscape:export-ydpi="240.55"
       inkscape:export-filename="/home/tatica/Descargas/Gaspacho/gaspacho1.png" />
    <text
       id="text4176"
       y="331.7879"
       x="306.91071"
       style="font-style:normal;font-variant:normal;font-weight:normal;font-stretch:normal;line-height:0%;font-family:Agreloy;-inkscape-font-specification:'Agreloy, Normal';text-align:start;letter-spacing:0px;word-spacing:0px;writing-mode:lr-tb;text-anchor:start;fill:#d40000;fill-opacity:1;stroke:none;stroke-width:1px;stroke-linecap:butt;stroke-linejoin:miter;stroke-opacity:1"
       xml:space="preserve"><tspan
         y="331.7879"
         x="306.91071"
         id="tspan4178"
         sodipodi:role="line"
         style="font-size:139.555px;line-height:1.25"> </tspan></text>
    <path
       inkscape:connector-curvature="0"
       id="path4295"
       style="font-style:normal;font-variant:normal;font-weight:normal;font-stretch:normal;font-size:46.22624969px;line-height:125%;font-family:SciFly;-inkscape-font-specification:'SciFly, Normal';text-align:start;letter-spacing:0px;word-spacing:0px;writing-mode:lr-tb;text-anchor:start;fill:#565656;fill-opacity:1;stroke:none;stroke-width:1px;stroke-linecap:butt;stroke-linejoin:miter;stroke-opacity:1"
       d="m 58.040697,197.30229 q 0.785846,0 1.47924,-0.27736 0.73962,-0.32358 1.248109,-0.83207 0.554715,-0.55471 0.878299,-1.24811 0.323583,-0.73962 0.323583,-1.57169 0,-0.83207 -0.323583,-1.52547 -0.323584,-0.73962 -0.878299,-1.24811 -0.508489,-0.55471 -1.248109,-0.83207 -0.693394,-0.32358 -1.47924,-0.32358 -0.785846,0 -1.525466,0.32358 -0.693394,0.27736 -1.248109,0.83207 -0.508489,0.50849 -0.832072,1.24811 -0.323584,0.6934 -0.323584,1.52547 0,0.83207 0.323584,1.57169 0.323583,0.6934 0.832072,1.24811 0.554715,0.50849 1.248109,0.83207 0.73962,0.27736 1.525466,0.27736 z m 2.080181,17.38107 q -0.785846,-1.01698 0.36981,-1.89528 0.600942,-0.41603 1.016978,-1.0632 0.416036,-0.60094 0.416036,-1.66415 0,-1.47923 -1.155656,-2.40376 -1.10943,-0.8783 -2.866028,-0.8783 l -7.950915,0 q -0.647167,0 -1.016977,-0.36981 -0.36981,-0.36981 -0.36981,-1.01698 l 0,-1.15565 q 0,-1.01698 0.785846,-2.08018 l 2.172634,-3.00471 q 0.231131,-0.36981 0.138679,-0.73962 -0.04623,-0.36981 -0.231132,-0.60094 -0.693393,-0.92453 -1.10943,-2.08018 -0.36981,-1.15566 -0.36981,-2.35754 0,-1.61792 0.647168,-3.05093 0.693394,-1.43302 1.802824,-2.49622 1.10943,-1.0632 2.542443,-1.66415 1.47924,-0.64716 3.097159,-0.64716 0.462263,0 0.924525,0.0462 0.508489,0.0462 1.155656,0.27736 0.647168,0.18491 0.924525,0.0462 0.277358,-0.13868 0.508489,-0.46227 l 1.47924,-1.98772 q 0.36981,-0.50849 0.878299,-0.55472 0.554715,-0.0925 1.063204,0.27736 l 0.924525,0.64717 q 0.508488,0.36981 0.554715,0.92452 0.09245,0.50849 -0.277358,1.01698 l -1.47924,1.98773 q -0.231131,0.36981 -0.09245,0.78584 0.138678,0.41604 0.36981,0.78585 1.155656,1.89528 1.155656,4.06791 0,1.61792 -0.693394,3.05093 -0.647167,1.43302 -1.756597,2.49622 -1.10943,1.01698 -2.58867,1.61792 -1.433014,0.60094 -3.050933,0.60094 -0.647167,0 -1.201882,-0.0925 -0.554715,-0.0925 -0.970752,-0.18491 -0.36981,-0.0924 -0.693393,0 -0.323584,0.0462 -0.554715,0.41604 l -0.73962,1.01698 q -0.416037,0.64716 0.416036,0.64716 l 3.559421,0 q 1.664145,0 3.143385,0.50849 1.525466,0.50849 2.634896,1.43302 1.155657,0.92452 1.802824,2.21886 0.647168,1.34056 0.647168,2.95847 0,2.35754 -1.016978,3.79056 -0.970751,1.43301 -2.126407,2.21886 -0.508489,0.32358 -1.016978,0.1849 -0.508489,-0.0925 -0.878299,-0.50849 l -0.924525,-1.0632 z" />
    <path
       inkscape:connector-curvature="0"
       id="path4297"
       style="font-style:normal;font-variant:normal;font-weight:normal;font-stretch:normal;font-size:46.22624969px;line-height:125%;font-family:SciFly;-inkscape-font-specification:'SciFly, Normal';text-align:start;letter-spacing:0px;word-spacing:0px;writing-mode:lr-tb;text-anchor:start;fill:#565656;fill-opacity:1;stroke:none;stroke-width:1px;stroke-linecap:butt;stroke-linejoin:miter;stroke-opacity:1"
       d="m 83.389294,190.36835 q 0,-0.46226 -0.462263,-0.46226 l -3.466968,0 q -2.311313,0 -3.605648,1.43301 -1.248109,1.43302 -1.248109,3.42075 l 0,4.5764 q 0,1.75659 1.016978,2.86602 1.063204,1.10943 2.912254,1.10943 1.248108,0 2.126407,-0.41603 0.924525,-0.46227 1.525466,-1.20189 0.600942,-0.73962 0.878299,-1.61791 0.323584,-0.92453 0.323584,-1.89528 l 0,-7.81224 z m 1.386787,16.41032 q -0.647167,0 -1.016977,-0.41603 -0.36981,-0.41604 -0.36981,-0.92453 0,-0.27736 -0.231131,-0.32358 -0.184905,-0.0925 -0.36981,0.13868 -0.647168,0.87829 -1.941503,1.43301 -1.248109,0.55471 -3.050932,0.55471 -1.617919,0 -2.95848,-0.60094 -1.340562,-0.60094 -2.311313,-1.71037 -0.970751,-1.10943 -1.525466,-2.63489 -0.554715,-1.5717 -0.554715,-3.42075 l 0,-4.11413 q 0,-1.80283 0.647167,-3.42075 0.647168,-1.61791 1.802824,-2.77357 1.201883,-1.20188 2.819801,-1.89528 1.617919,-0.69339 3.559422,-0.69339 l 6.887711,0 q 0.647167,0 1.016977,0.36981 0.36981,0.36981 0.36981,1.01698 l 0,18.02823 q 0,0.64717 -0.36981,1.01698 -0.36981,0.36981 -1.016977,0.36981 l -1.386788,0 z" />
    <path
       inkscape:connector-curvature="0"
       id="path4299"
       style="font-style:normal;font-variant:normal;font-weight:normal;font-stretch:normal;font-size:46.22624969px;line-height:125%;font-family:SciFly;-inkscape-font-specification:'SciFly, Normal';text-align:start;letter-spacing:0px;word-spacing:0px;writing-mode:lr-tb;text-anchor:start;fill:#565656;fill-opacity:1;stroke:none;stroke-width:1px;stroke-linecap:butt;stroke-linejoin:miter;stroke-opacity:1"
       d="m 93.292548,202.15605 q 0.785847,-0.92453 1.895277,0.0462 0.508488,0.41604 1.201882,0.78585 0.73962,0.32358 1.756597,0.32358 1.248109,0 2.080186,-0.55471 0.83207,-0.55472 0.83207,-1.47924 0,-0.8783 -0.73962,-1.52547 -0.693396,-0.64717 -2.634898,-1.61792 -1.248109,-0.60094 -2.21886,-1.24811 -0.970751,-0.64716 -1.664145,-1.38678 -0.647167,-0.78585 -1.016977,-1.71037 -0.36981,-0.92453 -0.36981,-2.17264 0,-1.24811 0.462262,-2.35754 0.462263,-1.10943 1.294335,-1.9415 0.878299,-0.83207 2.080181,-1.29433 1.248109,-0.50849 2.773575,-0.50849 1.849047,0 3.282067,0.69339 1.43301,0.69339 2.08018,1.38679 0.36981,0.46226 0.36981,1.01698 0.0462,0.50848 -0.36981,0.92452 l -0.83207,0.8783 q -0.41604,0.41604 -0.8783,0.55471 -0.41604,0.0925 -0.8783,-0.36981 -1.24811,-1.15565 -2.773577,-1.15565 -1.340561,0 -1.987728,0.60094 -0.600942,0.60094 -0.600942,1.57169 0,0.92453 0.878299,1.57169 0.878299,0.64717 2.21886,1.24811 1.294338,0.55472 2.311308,1.20189 1.06321,0.64716 1.80283,1.43301 0.73962,0.73962 1.15565,1.71037 0.41604,0.92453 0.41604,2.17263 0,1.52547 -0.60094,2.72735 -0.60094,1.15566 -1.61792,1.98773 -0.97075,0.78585 -2.26509,1.15566 -1.248104,0.41603 -2.542439,0.41603 -2.126408,0 -3.513195,-0.55471 -1.386788,-0.60094 -2.21886,-1.57169 -0.36981,-0.41604 -0.416036,-0.97075 0,-0.55472 0.416036,-0.97076 l 0.832072,-1.01697 z" />
    <path
       inkscape:connector-curvature="0"
       id="path4301"
       style="font-style:normal;font-variant:normal;font-weight:normal;font-stretch:normal;font-size:46.22624969px;line-height:125%;font-family:SciFly;-inkscape-font-specification:'SciFly, Normal';text-align:start;letter-spacing:0px;word-spacing:0px;writing-mode:lr-tb;text-anchor:start;fill:#565656;fill-opacity:1;stroke:none;stroke-width:1px;stroke-linecap:butt;stroke-linejoin:miter;stroke-opacity:1"
       d="m 122.66355,193.83532 q 0,-1.7566 -1.15566,-2.8198 -1.15565,-1.10943 -2.77357,-1.10943 l -4.3915,0 q -0.46226,0 -0.46226,0.46226 l 0,12.01883 q 0,0.46226 0.46226,0.46226 l 4.3915,0 q 1.7566,0 2.8198,-1.0632 1.10943,-1.10943 1.10943,-2.86603 l 0,-5.08489 z m -11.55656,23.57539 q -0.64717,0 -1.01698,-0.36981 -0.36981,-0.36981 -0.36981,-1.01698 l 0,-28.66027 q 0,-0.64717 0.36981,-1.01698 0.36981,-0.36981 1.01698,-0.36981 l 7.62733,0 q 1.80282,0 3.28206,0.60094 1.52547,0.60094 2.58867,1.66415 1.06321,1.01697 1.61792,2.49621 0.60094,1.43302 0.60094,3.09716 l 0,5.08489 q 0,1.66414 -0.60094,3.14338 -0.60094,1.43302 -1.66414,2.49622 -1.01698,1.01698 -2.49622,1.61792 -1.43302,0.60094 -3.14339,0.60094 l -4.5764,0 q -0.46226,0 -0.46226,0.46226 l 0,8.78299 q 0,0.64717 -0.36981,1.01698 -0.36981,0.36981 -1.01698,0.36981 l -1.38678,0 z" />
    <path
       inkscape:connector-curvature="0"
       id="path4303"
       style="font-style:normal;font-variant:normal;font-weight:normal;font-stretch:normal;font-size:46.22624969px;line-height:125%;font-family:SciFly;-inkscape-font-specification:'SciFly, Normal';text-align:start;letter-spacing:0px;word-spacing:0px;writing-mode:lr-tb;text-anchor:start;fill:#565656;fill-opacity:1;stroke:none;stroke-width:1px;stroke-linecap:butt;stroke-linejoin:miter;stroke-opacity:1"
       d="m 144.87382,190.36835 q 0,-0.46226 -0.46227,-0.46226 l -3.46697,0 q -2.31131,0 -3.60564,1.43301 -1.24811,1.43302 -1.24811,3.42075 l 0,4.5764 q 0,1.75659 1.01698,2.86602 1.0632,1.10943 2.91225,1.10943 1.24811,0 2.12641,-0.41603 0.92452,-0.46227 1.52546,-1.20189 0.60094,-0.73962 0.8783,-1.61791 0.32359,-0.92453 0.32359,-1.89528 l 0,-7.81224 z m 1.38678,16.41032 q -0.64716,0 -1.01697,-0.41603 -0.36981,-0.41604 -0.36981,-0.92453 0,-0.27736 -0.23114,-0.32358 -0.1849,-0.0925 -0.36981,0.13868 -0.64716,0.87829 -1.9415,1.43301 -1.24811,0.55471 -3.05093,0.55471 -1.61792,0 -2.95848,-0.60094 -1.34056,-0.60094 -2.31131,-1.71037 -0.97075,-1.10943 -1.52547,-2.63489 -0.55471,-1.5717 -0.55471,-3.42075 l 0,-4.11413 q 0,-1.80283 0.64716,-3.42075 0.64717,-1.61791 1.80283,-2.77357 1.20188,-1.20188 2.8198,-1.89528 1.61792,-0.69339 3.55942,-0.69339 l 6.88771,0 q 0.64717,0 1.01698,0.36981 0.36981,0.36981 0.36981,1.01698 l 0,18.02823 q 0,0.64717 -0.36981,1.01698 -0.36981,0.36981 -1.01698,0.36981 l -1.38679,0 z" />
    <path
       inkscape:connector-curvature="0"
       id="path4305"
       style="font-style:normal;font-variant:normal;font-weight:normal;font-stretch:normal;font-size:46.22624969px;line-height:125%;font-family:SciFly;-inkscape-font-specification:'SciFly, Normal';text-align:start;letter-spacing:0px;word-spacing:0px;writing-mode:lr-tb;text-anchor:start;fill:#565656;fill-opacity:1;stroke:none;stroke-width:1px;stroke-linecap:butt;stroke-linejoin:miter;stroke-opacity:1"
       d="m 168.69117,202.66454 q 0.41604,0.41603 0.36981,0.92452 -0.0462,0.50849 -0.41604,0.97075 -0.78584,0.92453 -2.44999,1.80283 -1.61792,0.87829 -3.74432,0.87829 -2.03396,0 -3.60565,-0.64716 -1.52547,-0.6934 -2.58867,-1.80283 -1.06321,-1.15565 -1.61792,-2.68112 -0.50849,-1.52547 -0.50849,-3.18961 l 0,-5.08489 q 0,-1.66414 0.55472,-3.18961 0.60094,-1.52547 1.66414,-2.6349 1.10943,-1.15565 2.6349,-1.80282 1.52546,-0.69339 3.46697,-0.69339 1.89527,0 3.37451,0.69339 1.47924,0.64717 2.44999,1.61792 0.41604,0.41604 0.41604,0.97075 0,0.55472 -0.41604,0.97075 l -0.8783,0.8783 q -0.87829,0.8783 -1.89527,-0.0462 -0.50849,-0.46226 -1.34056,-0.78584 -0.78585,-0.36981 -1.71037,-0.36981 -2.21886,0 -3.18962,1.34056 -0.97075,1.29433 -0.97075,3.05093 l 0,5.08489 q 0,0.8783 0.18491,1.71037 0.23113,0.78585 0.69339,1.38679 0.50849,0.60094 1.29434,0.97075 0.78584,0.32358 1.98773,0.32358 1.20188,0 2.08018,-0.50849 0.8783,-0.50848 1.38678,-0.97075 1.06321,-0.8783 1.94151,0 l 0.83207,0.83208 z" />
    <path
       inkscape:connector-curvature="0"
       id="path4307"
       style="font-style:normal;font-variant:normal;font-weight:normal;font-stretch:normal;font-size:46.22624969px;line-height:125%;font-family:SciFly;-inkscape-font-specification:'SciFly, Normal';text-align:start;letter-spacing:0px;word-spacing:0px;writing-mode:lr-tb;text-anchor:start;fill:#565656;fill-opacity:1;stroke:none;stroke-width:1px;stroke-linecap:butt;stroke-linejoin:miter;stroke-opacity:1"
       d="m 186.87831,206.77867 q -0.64717,0 -1.01698,-0.36981 -0.36981,-0.36981 -0.36981,-1.01698 l 0,-11.74146 q 0,-1.7566 -1.01697,-2.72735 -0.97075,-1.01698 -2.72735,-1.01698 l -4.11414,0 q -0.46226,0 -0.46226,0.46226 l 0,15.02353 q 0,0.64717 -0.36981,1.01698 -0.36981,0.36981 -1.01698,0.36981 l -1.38679,0 q -0.64716,0 -1.01697,-0.36981 -0.36981,-0.36981 -0.36981,-1.01698 l 0,-28.66027 q 0,-0.64717 0.36981,-1.01698 0.36981,-0.36981 1.01697,-0.36981 l 1.38679,0 q 0.64717,0 1.01698,0.36981 0.36981,0.36981 0.36981,1.01698 l 0,8.78299 q 0,0.46226 0.46226,0.46226 l 4.29904,0 q 1.71037,0 3.14339,0.60094 1.43301,0.55472 2.44999,1.57169 1.01698,1.01698 1.57169,2.44999 0.55472,1.38679 0.55472,3.05094 l 0,11.74146 q 0,0.64717 -0.36981,1.01698 -0.36981,0.36981 -1.01698,0.36981 l -1.38679,0 z" />
    <path
       inkscape:connector-curvature="0"
       id="path4309"
       style="font-style:normal;font-variant:normal;font-weight:normal;font-stretch:normal;font-size:46.22624969px;line-height:125%;font-family:SciFly;-inkscape-font-specification:'SciFly, Normal';text-align:start;letter-spacing:0px;word-spacing:0px;writing-mode:lr-tb;text-anchor:start;fill:#565656;fill-opacity:1;stroke:none;stroke-width:1px;stroke-linecap:butt;stroke-linejoin:miter;stroke-opacity:1"
       d="m 205.15935,203.3117 q 1.43302,0 2.6349,-0.55471 1.24811,-0.55472 2.12641,-1.47924 0.92452,-0.92453 1.43301,-2.17264 0.50849,-1.29433 0.50849,-2.72734 0,-1.43302 -0.50849,-2.68113 -0.50849,-1.29433 -1.43301,-2.21886 -0.8783,-0.92452 -2.12641,-1.47924 -1.20188,-0.55471 -2.6349,-0.55471 -1.43301,0 -2.68112,0.55471 -1.20188,0.55472 -2.12641,1.47924 -0.87829,0.92453 -1.38678,2.21886 -0.50849,1.24811 -0.50849,2.68113 0,1.43301 0.50849,2.72734 0.50849,1.24811 1.38678,2.17264 0.92453,0.92452 2.12641,1.47924 1.24811,0.55471 2.68112,0.55471 z m 0,3.92923 q -2.26508,0 -4.25281,-0.83207 -1.9415,-0.8783 -3.42074,-2.35754 -1.47924,-1.47924 -2.35754,-3.42074 -0.83207,-1.98773 -0.83207,-4.25281 0,-2.26509 0.83207,-4.20659 0.8783,-1.98773 2.35754,-3.46697 1.47924,-1.47924 3.42074,-2.31131 1.98773,-0.8783 4.25281,-0.8783 2.26509,0 4.20659,0.8783 1.98773,0.83207 3.46697,2.31131 1.47924,1.47924 2.31131,3.46697 0.8783,1.9415 0.8783,4.20659 0,2.26508 -0.8783,4.25281 -0.83207,1.9415 -2.31131,3.42074 -1.47924,1.47924 -3.46697,2.35754 -1.9415,0.83207 -4.20659,0.83207 z" />
  </g>
</svg>
